<svg xmlns="http://www.w3.org/2000/svg" viewBox="0 0 512 512">
  <defs>
    <linearGradient id="bg" x1="0%" y1="0%" x2="100%" y2="100%">
      <stop offset="0%" stop-color="#1a2230"/>
      <stop offset="100%" stop-color="#0f1419"/>
    </linearGradient>
    <linearGradient id="logo-grad" x1="0%" y1="0%" x2="100%" y2="100%">
      <stop offset="0%"   stop-color="#5ea8ff"/>
      <stop offset="50%"  stop-color="#a98cff"/>
      <stop offset="100%" stop-color="#ff8cb8"/>
    </linearGradient>
  </defs>

  <!-- Background: フルサイズ・角丸なし -->
  <rect width="512" height="512" fill="url(#bg)"/>

  <!-- safe zone: 中央80% → コンテンツは x:51〜461, y:51〜461 -->
  <g transform="translate(106, 106)">
    <!-- Board background -->
    <rect width="300" height="300" rx="8" fill="#161e2c" stroke="#2a3a52" stroke-width="2"/>

    <!-- Grid lines -->
    <line x1="0"   y1="60"  x2="300" y2="60"  stroke="#2a3a52" stroke-width="1" opacity="0.6"/>
    <line x1="0"   y1="120" x2="300" y2="120" stroke="#2a3a52" stroke-width="1" opacity="0.6"/>
    <line x1="0"   y1="180" x2="300" y2="180" stroke="#2a3a52" stroke-width="1" opacity="0.6"/>
    <line x1="0"   y1="240" x2="300" y2="240" stroke="#2a3a52" stroke-width="1" opacity="0.6"/>
    <line x1="60"  y1="0"   x2="60"  y2="300" stroke="#2a3a52" stroke-width="1" opacity="0.6"/>
    <line x1="120" y1="0"   x2="120" y2="300" stroke="#2a3a52" stroke-width="1" opacity="0.6"/>
    <line x1="180" y1="0"   x2="180" y2="300" stroke="#2a3a52" stroke-width="1" opacity="0.6"/>
    <line x1="240" y1="0"   x2="240" y2="300" stroke="#2a3a52" stroke-width="1" opacity="0.6"/>

    <!-- Player 0: 赤 (左上) A, K, Q -->
    <rect x="5"  y="5"  width="50" height="50" rx="4" fill="#f8f9fa" stroke="#e74c3c" stroke-width="3"/>
    <text x="30" y="38" text-anchor="middle" font-size="26" font-weight="900" fill="#c0392b" font-family="-apple-system,BlinkMacSystemFont,sans-serif">A</text>
    <rect x="65" y="5"  width="50" height="50" rx="4" fill="#f8f9fa" stroke="#e74c3c" stroke-width="3"/>
    <text x="90" y="38" text-anchor="middle" font-size="26" font-weight="900" fill="#c0392b" font-family="-apple-system,BlinkMacSystemFont,sans-serif">K</text>
    <rect x="5"  y="65" width="50" height="50" rx="4" fill="#f8f9fa" stroke="#e74c3c" stroke-width="3"/>
    <text x="30" y="98" text-anchor="middle" font-size="26" font-weight="900" fill="#c0392b" font-family="-apple-system,BlinkMacSystemFont,sans-serif">Q</text>

    <!-- Player 1: 青 (右上) A, K, Q -->
    <rect x="245" y="5"  width="50" height="50" rx="4" fill="#f8f9fa" stroke="#3498db" stroke-width="3"/>
    <text x="270" y="38" text-anchor="middle" font-size="26" font-weight="900" fill="#2980b9" font-family="-apple-system,BlinkMacSystemFont,sans-serif">7</text>
    <rect x="185" y="5"  width="50" height="50" rx="4" fill="#f8f9fa" stroke="#3498db" stroke-width="3"/>
    <text x="210" y="38" text-anchor="middle" font-size="26" font-weight="900" fill="#2980b9" font-family="-apple-system,BlinkMacSystemFont,sans-serif">J</text>
    <rect x="245" y="65" width="50" height="50" rx="4" fill="#f8f9fa" stroke="#3498db" stroke-width="3"/>
    <text x="270" y="98" text-anchor="middle" font-size="26" font-weight="900" fill="#2980b9" font-family="-apple-system,BlinkMacSystemFont,sans-serif">3</text>

    <!-- Player 2: 緑 (左下) A, K, Q -->
    <rect x="5"  y="245" width="50" height="50" rx="4" fill="#f8f9fa" stroke="#2ecc71" stroke-width="3"/>
    <text x="30" y="278" text-anchor="middle" font-size="26" font-weight="900" fill="#1a5c2e" font-family="-apple-system,BlinkMacSystemFont,sans-serif">9</text>
    <rect x="65" y="245" width="50" height="50" rx="4" fill="#f8f9fa" stroke="#2ecc71" stroke-width="3"/>
    <text x="90" y="278" text-anchor="middle" font-size="26" font-weight="900" fill="#1a5c2e" font-family="-apple-system,BlinkMacSystemFont,sans-serif">5</text>
    <rect x="5"  y="185" width="50" height="50" rx="4" fill="#f8f9fa" stroke="#2ecc71" stroke-width="3"/>
    <text x="30" y="218" text-anchor="middle" font-size="26" font-weight="900" fill="#1a5c2e" font-family="-apple-system,BlinkMacSystemFont,sans-serif">2</text>

    <!-- Player 3: 黄 (右下) A, K, Q -->
    <rect x="245" y="245" width="50" height="50" rx="4" fill="#f8f9fa" stroke="#f1c40f" stroke-width="3"/>
    <text x="270" y="278" text-anchor="middle" font-size="26" font-weight="900" fill="#8b6914" font-family="-apple-system,BlinkMacSystemFont,sans-serif">8</text>
    <rect x="185" y="245" width="50" height="50" rx="4" fill="#f8f9fa" stroke="#f1c40f" stroke-width="3"/>
    <text x="210" y="278" text-anchor="middle" font-size="26" font-weight="900" fill="#8b6914" font-family="-apple-system,BlinkMacSystemFont,sans-serif">4</text>
    <rect x="245" y="185" width="50" height="50" rx="4" fill="#f8f9fa" stroke="#f1c40f" stroke-width="3"/>
    <text x="270" y="218" text-anchor="middle" font-size="26" font-weight="900" fill="#8b6914" font-family="-apple-system,BlinkMacSystemFont,sans-serif">6</text>

    <!-- Center: LL logo -->
    <text x="150" y="175" text-anchor="middle" font-size="88" font-weight="900"
          fill="url(#logo-grad)" font-family="-apple-system,BlinkMacSystemFont,sans-serif"
          letter-spacing="4">LL</text>
  </g>
</svg>
